<!--<?xml version="1.0" encoding="utf-8"?>-->
<!-- Generator: Adobe Illustrator 14.0.0, SVG Export Plug-In . SVG Version: 6.00 Build 43363)  -->
<!DOCTYPE svg PUBLIC "-//W3C//DTD SVG 1.1//EN" "http://www.w3.org/Graphics/SVG/1.1/DTD/svg11.dtd">
<svg version="1.1" id="Layer_2" xmlns="http://www.w3.org/2000/svg" xmlns:xlink="http://www.w3.org/1999/xlink" x="0px" y="0px"
	 width="124px" height="21px" viewBox="0 0 124 21" enable-background="new 0 0 124 21" xml:space="preserve">
<path fill="#929497" d="M3.618,17.816c-0.31,0.533-0.994,0.715-1.527,0.405L1.244,17.73c-0.534-0.311-0.715-0.994-0.405-1.528
	L8.397,3.184C8.706,2.65,9.39,2.469,9.924,2.779l0.847,0.492c0.534,0.31,0.715,0.993,0.405,1.527L3.618,17.816z"/>
<path fill="#929497" d="M19.846,17.816c0.311,0.533,0.994,0.715,1.527,0.405l0.847-0.491c0.534-0.31,0.715-0.993,0.405-1.528
	L15.068,3.184c-0.31-0.534-0.993-0.715-1.527-0.405l-0.847,0.492c-0.533,0.31-0.715,0.993-0.405,1.527L19.846,17.816z"/>
<path fill="#D0D2D3" d="M24.984,17.816c0.31,0.533,0.994,0.715,1.527,0.405l0.847-0.491c0.534-0.31,0.715-0.993,0.405-1.528
	L20.205,3.184c-0.31-0.534-0.993-0.715-1.527-0.405l-0.847,0.492c-0.534,0.31-0.715,0.993-0.405,1.527L24.984,17.816z"/>
<g>
	<path fill="#231F20" d="M29.488,13.889v-0.581c0.528,0.336,1.063,0.504,1.605,0.504c0.576,0,1.014-0.119,1.312-0.357
		c0.299-0.238,0.448-0.572,0.448-1.001c0-0.377-0.1-0.679-0.301-0.903s-0.636-0.53-1.305-0.918c-0.748-0.436-1.221-0.8-1.42-1.093
		c-0.199-0.293-0.298-0.632-0.298-1.017c0-0.521,0.203-0.964,0.607-1.328c0.405-0.363,0.945-0.545,1.621-0.545
		c0.439,0,0.878,0.074,1.317,0.221v0.535c-0.433-0.195-0.894-0.293-1.384-0.293c-0.501,0-0.898,0.127-1.191,0.381
		s-0.44,0.576-0.44,0.967c0,0.377,0.1,0.678,0.301,0.9c0.201,0.223,0.634,0.527,1.299,0.911c0.69,0.391,1.148,0.738,1.376,1.042
		c0.229,0.304,0.342,0.652,0.342,1.047c0,0.566-0.196,1.027-0.589,1.385c-0.393,0.356-0.948,0.535-1.665,0.535
		c-0.254,0-0.546-0.04-0.877-0.118C29.916,14.083,29.663,13.992,29.488,13.889z"/>
	<path fill="#231F20" d="M35.087,7.554c-0.103,0-0.194-0.038-0.273-0.113c-0.079-0.075-0.118-0.171-0.118-0.288
		c0-0.113,0.04-0.205,0.121-0.275s0.171-0.105,0.271-0.105c0.106,0,0.2,0.035,0.28,0.103c0.081,0.069,0.121,0.161,0.121,0.278
		c0,0.11-0.04,0.204-0.119,0.283C35.291,7.515,35.197,7.554,35.087,7.554z M34.855,14.151v-5.27h0.474v5.27H34.855z"/>
	<path fill="#231F20" d="M43.624,14.151v-3.17c0-0.662-0.104-1.127-0.311-1.395s-0.536-0.401-0.985-0.401
		c-0.416,0-0.774,0.178-1.076,0.535s-0.453,0.805-0.453,1.344v3.087h-0.473v-3.206c0-1.173-0.446-1.76-1.338-1.76
		c-0.429,0-0.786,0.179-1.07,0.538c-0.285,0.359-0.427,0.823-0.427,1.392v3.036h-0.474v-5.27h0.474v0.875h0.021
		c0.367-0.669,0.904-1.003,1.611-1.003c0.384,0,0.712,0.11,0.985,0.332c0.273,0.222,0.457,0.512,0.553,0.873
		c0.165-0.381,0.4-0.677,0.708-0.888s0.641-0.316,1.001-0.316c1.153,0,1.729,0.713,1.729,2.141v3.257H43.624z"/>
	<path fill="#231F20" d="M46.171,13.215h-0.021v3.36h-0.474V8.882h0.474v1.086h0.021C46.36,9.58,46.63,9.281,46.982,9.07
		s0.738-0.316,1.161-0.316c0.669,0,1.191,0.23,1.567,0.692c0.375,0.461,0.563,1.088,0.563,1.881c0,0.882-0.215,1.595-0.646,2.139
		c-0.431,0.543-0.999,0.815-1.706,0.815C47.132,14.28,46.549,13.925,46.171,13.215z M46.151,11.254v0.664
		c0,0.528,0.167,0.982,0.499,1.361c0.333,0.379,0.77,0.568,1.313,0.568c0.539,0,0.976-0.23,1.312-0.692
		c0.336-0.461,0.504-1.067,0.504-1.818c0-0.659-0.154-1.182-0.463-1.57c-0.309-0.388-0.72-0.582-1.235-0.582
		c-0.614,0-1.089,0.206-1.425,0.618C46.319,10.215,46.151,10.698,46.151,11.254z"/>
	<path fill="#231F20" d="M51.579,14.151V6.35h0.474v7.801H51.579z"/>
	<path fill="#231F20" d="M53.854,11.537c0,0.724,0.167,1.29,0.502,1.698s0.793,0.612,1.376,0.612c0.59,0,1.167-0.218,1.729-0.653
		v0.504c-0.545,0.388-1.154,0.582-1.827,0.582c-0.679,0-1.229-0.244-1.647-0.731c-0.418-0.486-0.627-1.175-0.627-2.063
		c0-0.768,0.218-1.416,0.656-1.942c0.438-0.526,1.006-0.79,1.706-0.79c0.655,0,1.158,0.229,1.508,0.689
		c0.35,0.459,0.525,1.087,0.525,1.883v0.211H53.854z M57.26,11.105c-0.021-0.608-0.167-1.08-0.438-1.416
		c-0.271-0.336-0.645-0.504-1.122-0.504c-0.494,0-0.903,0.166-1.228,0.497s-0.524,0.805-0.6,1.423H57.26z"/>
	<path fill="#231F20" d="M61.676,13.92v-0.571c0.178,0.154,0.395,0.276,0.648,0.365c0.253,0.089,0.473,0.134,0.659,0.134
		c0.826,0,1.24-0.338,1.24-1.014c0-0.233-0.091-0.433-0.272-0.597c-0.183-0.165-0.478-0.335-0.886-0.51
		c-0.504-0.22-0.858-0.446-1.063-0.682c-0.204-0.235-0.306-0.521-0.306-0.857c0-0.429,0.164-0.775,0.491-1.04
		S62.92,8.753,63.4,8.753c0.452,0,0.84,0.092,1.163,0.278v0.535c-0.392-0.254-0.796-0.381-1.215-0.381
		c-0.347,0-0.626,0.09-0.839,0.27s-0.319,0.415-0.319,0.703c0,0.25,0.067,0.454,0.201,0.61c0.134,0.156,0.429,0.335,0.885,0.538
		c0.549,0.247,0.927,0.476,1.132,0.687c0.206,0.212,0.31,0.492,0.31,0.842c0,0.419-0.157,0.765-0.471,1.037
		c-0.314,0.272-0.747,0.409-1.3,0.409C62.439,14.28,62.015,14.16,61.676,13.92z"/>
	<path fill="#231F20" d="M69.452,13.92c-0.392,0.24-0.857,0.36-1.399,0.36c-0.718,0-1.296-0.246-1.734-0.738
		c-0.439-0.492-0.659-1.137-0.659-1.933c0-0.837,0.247-1.522,0.741-2.056c0.494-0.533,1.129-0.8,1.904-0.8
		c0.401,0,0.79,0.082,1.168,0.247v0.535c-0.378-0.233-0.791-0.35-1.24-0.35c-0.617,0-1.118,0.222-1.503,0.667
		c-0.384,0.444-0.576,1.02-0.576,1.726c0,0.683,0.176,1.231,0.527,1.646c0.352,0.416,0.815,0.623,1.393,0.623
		c0.528,0,0.987-0.141,1.379-0.422V13.92z"/>
	<path fill="#231F20" d="M74.3,14.151v-3.16c0-0.625-0.113-1.082-0.34-1.372c-0.227-0.29-0.58-0.435-1.061-0.435
		c-0.452,0-0.851,0.177-1.193,0.53c-0.343,0.354-0.515,0.859-0.515,1.518v2.918h-0.474V6.35h0.474v3.479h0.021
		c0.415-0.717,1.019-1.075,1.812-1.075c0.569,0,1.003,0.184,1.302,0.55c0.299,0.367,0.448,0.894,0.448,1.58v3.268H74.3z"/>
	<path fill="#231F20" d="M78.472,14.28c-0.769,0-1.377-0.253-1.824-0.76c-0.448-0.506-0.672-1.163-0.672-1.973
		c0-0.875,0.234-1.56,0.703-2.054c0.468-0.494,1.084-0.741,1.85-0.741c0.751,0,1.345,0.245,1.78,0.736s0.653,1.17,0.653,2.038
		c0,0.819-0.222,1.483-0.666,1.991S79.244,14.28,78.472,14.28z M78.509,9.186c-0.621,0-1.116,0.209-1.484,0.628
		c-0.369,0.418-0.554,1-0.554,1.744c0,0.689,0.181,1.244,0.54,1.662c0.36,0.419,0.853,0.628,1.478,0.628
		c0.635,0,1.123-0.206,1.467-0.617c0.343-0.412,0.514-0.983,0.514-1.714c0-0.751-0.17-1.328-0.512-1.729
		C79.616,9.386,79.133,9.186,78.509,9.186z"/>
	<path fill="#231F20" d="M84.385,14.28c-0.769,0-1.377-0.253-1.824-0.76c-0.448-0.506-0.672-1.163-0.672-1.973
		c0-0.875,0.234-1.56,0.703-2.054C83.06,9,83.677,8.753,84.442,8.753c0.751,0,1.345,0.245,1.78,0.736s0.653,1.17,0.653,2.038
		c0,0.819-0.222,1.483-0.666,1.991S85.157,14.28,84.385,14.28z M84.422,9.186c-0.621,0-1.116,0.209-1.484,0.628
		c-0.369,0.418-0.554,1-0.554,1.744c0,0.689,0.181,1.244,0.54,1.662c0.36,0.419,0.853,0.628,1.478,0.628
		c0.635,0,1.123-0.206,1.467-0.617c0.343-0.412,0.514-0.983,0.514-1.714c0-0.751-0.17-1.328-0.512-1.729
		C85.529,9.386,85.046,9.186,84.422,9.186z"/>
	<path fill="#231F20" d="M88.182,14.151V6.35h0.474v7.801H88.182z"/>
	<path fill="#231F20" d="M95.717,9.376c-0.157-0.113-0.343-0.17-0.556-0.17c-0.415,0-0.763,0.214-1.044,0.643
		c-0.282,0.429-0.423,1.038-0.423,1.827v2.476h-0.463v-5.27h0.463v1.168h0.021c0.119-0.401,0.31-0.713,0.57-0.937
		c0.261-0.223,0.563-0.334,0.906-0.334c0.195,0,0.37,0.031,0.524,0.093V9.376z"/>
	<path fill="#231F20" d="M96.823,11.537c0,0.724,0.167,1.29,0.502,1.698c0.334,0.408,0.793,0.612,1.376,0.612
		c0.591,0,1.167-0.218,1.729-0.653v0.504c-0.546,0.388-1.154,0.582-1.827,0.582c-0.679,0-1.228-0.244-1.646-0.731
		c-0.419-0.486-0.628-1.175-0.628-2.063c0-0.768,0.219-1.416,0.656-1.942c0.438-0.526,1.006-0.79,1.706-0.79
		c0.655,0,1.158,0.229,1.508,0.689c0.35,0.459,0.524,1.087,0.524,1.883v0.211H96.823z M100.23,11.105
		c-0.021-0.608-0.167-1.08-0.438-1.416c-0.271-0.336-0.646-0.504-1.122-0.504c-0.494,0-0.903,0.166-1.228,0.497
		s-0.524,0.805-0.6,1.423H100.23z"/>
	<path fill="#231F20" d="M102.524,13.215h-0.021v3.36h-0.474V8.882h0.474v1.086h0.021c0.188-0.388,0.459-0.687,0.811-0.898
		s0.738-0.316,1.16-0.316c0.669,0,1.191,0.23,1.567,0.692c0.375,0.461,0.563,1.088,0.563,1.881c0,0.882-0.216,1.595-0.646,2.139
		c-0.431,0.543-1,0.815-1.706,0.815C103.485,14.28,102.901,13.925,102.524,13.215z M102.504,11.254v0.664
		c0,0.528,0.166,0.982,0.499,1.361s0.771,0.568,1.313,0.568c0.538,0,0.976-0.23,1.313-0.692c0.336-0.461,0.504-1.067,0.504-1.818
		c0-0.659-0.154-1.182-0.463-1.57s-0.721-0.582-1.235-0.582c-0.614,0-1.089,0.206-1.426,0.618
		C102.672,10.215,102.504,10.698,102.504,11.254z"/>
	<path fill="#231F20" d="M110.048,14.28c-0.769,0-1.377-0.253-1.824-0.76c-0.448-0.506-0.672-1.163-0.672-1.973
		c0-0.875,0.234-1.56,0.703-2.054c0.468-0.494,1.084-0.741,1.85-0.741c0.751,0,1.345,0.245,1.78,0.736s0.653,1.17,0.653,2.038
		c0,0.819-0.222,1.483-0.666,1.991S110.819,14.28,110.048,14.28z M110.084,9.186c-0.621,0-1.116,0.209-1.484,0.628
		c-0.369,0.418-0.554,1-0.554,1.744c0,0.689,0.181,1.244,0.54,1.662c0.36,0.419,0.853,0.628,1.478,0.628
		c0.635,0,1.123-0.206,1.467-0.617c0.343-0.412,0.514-0.983,0.514-1.714c0-0.751-0.17-1.328-0.512-1.729
		C111.191,9.386,110.708,9.186,110.084,9.186z"/>
	<path fill="#231F20" d="M116.331,9.376c-0.157-0.113-0.343-0.17-0.556-0.17c-0.415,0-0.763,0.214-1.044,0.643
		c-0.282,0.429-0.423,1.038-0.423,1.827v2.476h-0.463v-5.27h0.463v1.168h0.021c0.119-0.401,0.31-0.713,0.57-0.937
		c0.261-0.223,0.563-0.334,0.906-0.334c0.195,0,0.37,0.031,0.524,0.093V9.376z"/>
	<path fill="#231F20" d="M119.408,14.079c-0.247,0.117-0.479,0.175-0.694,0.175c-0.779,0-1.168-0.466-1.168-1.399V9.314h-0.947
		V8.882h0.947V7.513c0.075-0.027,0.154-0.055,0.236-0.083c0.082-0.024,0.161-0.05,0.237-0.077v1.528h1.389v0.432h-1.389v3.479
		c0,0.363,0.057,0.627,0.172,0.79s0.31,0.244,0.584,0.244c0.195,0,0.406-0.063,0.633-0.19V14.079z"/>
	<path fill="#231F20" d="M120.18,13.92v-0.571c0.179,0.154,0.395,0.276,0.648,0.365s0.474,0.134,0.658,0.134
		c0.827,0,1.24-0.338,1.24-1.014c0-0.233-0.091-0.433-0.272-0.597c-0.182-0.165-0.477-0.335-0.885-0.51
		c-0.505-0.22-0.859-0.446-1.063-0.682c-0.205-0.235-0.307-0.521-0.307-0.857c0-0.429,0.164-0.775,0.491-1.04
		c0.328-0.264,0.731-0.396,1.212-0.396c0.453,0,0.841,0.092,1.163,0.278v0.535c-0.391-0.254-0.796-0.381-1.215-0.381
		c-0.346,0-0.626,0.09-0.838,0.27c-0.213,0.18-0.319,0.415-0.319,0.703c0,0.25,0.066,0.454,0.2,0.61
		c0.134,0.156,0.429,0.335,0.886,0.538c0.549,0.247,0.926,0.476,1.132,0.687c0.206,0.212,0.309,0.492,0.309,0.842
		c0,0.419-0.157,0.765-0.471,1.037s-0.747,0.409-1.3,0.409C120.944,14.28,120.52,14.16,120.18,13.92z"/>
</g>
</svg>
